	<?xml version="1.0" encoding="iso-8859-1"?>
<!-- Generator: Adobe Illustrator 19.0.0, SVG Export Plug-In . SVG Version: 6.00 Build 0)  -->
<svg version="1.1" id="Layer_1" xmlns="http://www.w3.org/2000/svg" xmlns:xlink="http://www.w3.org/1999/xlink" x="0px" y="0px"
	 viewBox="0 0 371.189 371.189" style="enable-background:new 0 0 371.189 371.189;" xml:space="preserve">
<g>
	<polygon style="fill:#FFD26C;" points="185.595,58.207 62.522,371.189 308.667,371.189 	"/>
	<path style="fill:#FFB819;" d="M233.304,179.534L76.049,336.791l-13.526,34.398h44.208l144.941-144.943L233.304,179.534z
		 M196.405,85.698l-35.632,35.632l-42.176,107.255l96.176-96.176L196.405,85.698z M270.203,273.371l-97.818,97.818h65.08
		l51.106-51.106L270.203,273.371z"/>
	<path style="fill:#FFFFFF;" d="M204.735,106.882l-63.089,63.088l-3.923,9.977l68.72-68.72L204.735,106.882z M241.634,200.718
		L71.163,371.189h6.054l166.126-166.126L241.634,200.718z M278.532,294.555l-76.634,76.634h6.054l72.289-72.29L278.532,294.555z"/>
	<polygon style="fill:#D85C72;" points="292.369,329.741 78.821,329.741 62.522,371.189 308.667,371.189 	"/>
	<path style="fill:#B04C5C;" d="M141.808,0l-0.001,23.187c2.54-0.57,5.183-0.872,7.895-0.872c19.823,0,35.892,16.069,35.892,35.892
		C185.595,30.58,167.095,7.274,141.808,0z"/>
	<path style="fill:#D85C72;" d="M156.918,29.53c-15.837,0-28.677,12.839-28.677,28.677h19.916c0-10.338,8.381-18.719,18.719-18.719
		s18.719,8.381,18.719,18.719C185.595,42.369,172.755,29.53,156.918,29.53z"/>
	<path style="fill:#B04C5C;" d="M229.381,0l0.001,23.187c-2.54-0.57-5.183-0.872-7.895-0.872c-19.823,0-35.893,16.069-35.893,35.892
		C185.595,30.58,204.095,7.274,229.381,0z"/>
	<path style="fill:#D85C72;" d="M214.271,29.53c15.837,0,28.677,12.839,28.677,28.677h-19.916c0-10.338-8.381-18.719-18.719-18.719
		s-18.719,8.381-18.719,18.719C185.595,42.369,198.434,29.53,214.271,29.53z"/>
</g>
<g>
</g>
<g>
</g>
<g>
</g>
<g>
</g>
<g>
</g>
<g>
</g>
<g>
</g>
<g>
</g>
<g>
</g>
<g>
</g>
<g>
</g>
<g>
</g>
<g>
</g>
<g>
</g>
<g>
</g>
</svg>
